<svg width="28" height="38" viewBox="0 0 28 38" fill="none" xmlns="http://www.w3.org/2000/svg">
<path d="M18.4114 8.82539L2.18914 18.2758C1.5057 18.6739 1.10525 19.5644 1.14396 20.5994C1.18274 21.6345 1.6529 22.6057 2.37098 23.1338L8.04222 27.3048L12.6627 20.2824C12.8753 19.9593 13.2679 19.9583 13.5396 20.2804C13.8112 20.6024 13.859 21.1255 13.6464 21.4487L9.02588 28.4711L12.8097 35.5105C13.2888 36.4019 14.0648 36.9083 14.8347 36.832C15.6062 36.7556 16.2138 36.1106 16.4234 35.1527L21.4058 12.3757C21.6327 11.3387 21.3588 10.2027 20.6912 9.41114C20.0236 8.61955 19.15 8.39503 18.4114 8.82539Z" fill="white"/>
</svg>
